<?xml version="1.0" encoding="utf-8"?>
<!-- Generator: Adobe Illustrator 22.0.1, SVG Export Plug-In . SVG Version: 6.00 Build 0)  -->
<svg version="1.1" id="图层_1" xmlns="http://www.w3.org/2000/svg" xmlns:xlink="http://www.w3.org/1999/xlink" x="0px" y="0px"
	 viewBox="0 0 391 160" style="enable-background:new 0 0 391 160;" xml:space="preserve">
<style type="text/css">
	.st0{fill:none;stroke:#000000;stroke-width:0.797;stroke-miterlimit:10;}
	.st1{font-family:'LMRoman10-Regular-Identity-H';}
	.st2{font-size:9.9626px;}
	.st3{letter-spacing:16;}
	.st4{letter-spacing:3;}
	.st5{letter-spacing:11;}
	.st6{font-family:'LMRoman7-Regular-Identity-H';}
	.st7{font-size:6.9738px;}
	.st8{fill:none;stroke:#000000;stroke-width:0.2989;stroke-miterlimit:10;}
	.st9{font-family:'LMMono10-Regular-Identity-H';}
	.st10{fill:none;}
</style>
<line class="st0" x1="7.8" y1="8.4" x2="378.3" y2="8.4"/>
<text transform="matrix(1 0 0 1 13.7461 24.9375)"><tspan x="0" y="0" class="st1 st2">Clas</tspan><tspan x="19.9" y="0" class="st1 st2 st3">s</tspan><tspan x="41.2" y="0" class="st1 st2">P</tspan><tspan x="45.9" y="0" class="st1 st2">ar</tspan><tspan x="55.9" y="0" class="st1 st2 st4">t</tspan><tspan x="64.2" y="0" class="st1 st2">pag</tspan><tspan x="79.1" y="0" class="st1 st2 st5">e</tspan><tspan x="96.1" y="0" class="st1 st2">Chapter</tspan><tspan x="130.9" y="0" class="st1 st2 st5">s</tspan><tspan x="147.9" y="0" class="st1 st2">Abstract</tspan></text>
<text transform="matrix(1 0 0 1 196.6499 21.3223)" class="st6 st7">1</text>
<text transform="matrix(1 0 0 1 208.605 24.9375)"><tspan x="0" y="0" class="st1 st2">F</tspan><tspan x="4.2" y="0" class="st1 st2">ro</tspan><tspan x="14.1" y="0" class="st1 st2">n</tspan><tspan x="18.8" y="0" class="st1 st2">t-/Ba</tspan><tspan x="43.7" y="0" class="st1 st2">c</tspan><tspan x="48.5" y="0" class="st1 st2">kmatter</tspan></text>
<text transform="matrix(1 0 0 1 291.4053 21.3223)" class="st6 st7">2</text>
<text transform="matrix(1 0 0 1 303.3604 24.9375)"><tspan x="0" y="0" class="st1 st2">Ap</tspan><tspan x="10" y="0" class="st1 st2">p</tspan><tspan x="15.2" y="0" class="st1 st2">e</tspan><tspan x="20.2" y="0" class="st1 st2">ndi</tspan><tspan x="35.1" y="0" class="st1 st2 st4">x</tspan><tspan x="43.4" y="0" class="st1 st2">name</tspan></text>
<text transform="matrix(1 0 0 1 372.2822 21.3223)" class="st6 st7">3</text>
<line class="st8" x1="7.8" y1="32.5" x2="41.9" y2="32.5"/>
<line class="st8" x1="51.9" y1="32.5" x2="96.4" y2="32.5"/>
<line class="st8" x1="106.3" y1="32.5" x2="147.7" y2="32.5"/>
<line class="st8" x1="157.7" y1="32.5" x2="197.6" y2="32.5"/>
<line class="st8" x1="207.6" y1="32.5" x2="292.4" y2="32.5"/>
<line class="st8" x1="302.4" y1="32.5" x2="378.3" y2="32.5"/>
<text transform="matrix(1 0 0 1 13.7461 48.873)" class="st1 st2">article</text>
<path d="M182.1,39.2c0,0-0.1,0.2-0.3,0.3c-2,2.2-3.7,4.4-5.1,6.9c-0.4,0.7-0.8,1.5-0.9,1.6c0,0-0.1,0.1-0.1,0.2
	c0,0.1-0.1,0.2-0.1,0.2c0,0-0.5,0.3-0.7,0.3c-0.2,0.1-0.4,0-0.5,0c-0.1-0.1-0.1-0.1-0.2-0.4c-0.4-0.9-0.9-2.4-0.9-2.7
	c0-0.2,0.1-0.4,0.4-0.6c0.5-0.3,1-0.3,1.1,0c0,0,0.1,0.3,0.2,0.5c0.1,0.4,0.4,1.3,0.4,1.3c0,0,0.1-0.2,0.3-0.5
	c1.4-2.5,3.1-4.7,5-6.8c0.3-0.3,0.3-0.4,0.5-0.4C181.7,39,182.1,39.1,182.1,39.2z"/>
<text transform="matrix(1 0 0 1 13.7461 68.001)"><tspan x="0" y="0" class="st1 st2">b</tspan><tspan x="5.2" y="0" class="st1 st2">o</tspan><tspan x="10.5" y="0" class="st1 st2">ok</tspan></text>
<path d="M78.6,58.3c0,0-0.1,0.2-0.3,0.3c-2,2.2-3.7,4.4-5.1,6.9c-0.4,0.7-0.8,1.5-0.9,1.6c0,0-0.1,0.1-0.1,0.2
	c0,0.1-0.1,0.2-0.1,0.2c0,0-0.5,0.3-0.7,0.3c-0.2,0.1-0.4,0-0.5,0c-0.1-0.1-0.1-0.1-0.2-0.4c-0.4-0.9-0.9-2.4-0.9-2.7
	c0-0.2,0.1-0.4,0.4-0.6c0.5-0.3,1-0.3,1.1,0c0,0,0.1,0.3,0.2,0.5c0.1,0.4,0.4,1.3,0.4,1.3c0,0,0.1-0.2,0.3-0.5
	c1.4-2.5,3.1-4.7,5-6.8c0.3-0.3,0.3-0.4,0.5-0.4C78.1,58.2,78.6,58.2,78.6,58.3z"/>
<path d="M131.5,58.3c0,0-0.1,0.2-0.3,0.3c-2,2.2-3.7,4.4-5.1,6.9c-0.4,0.7-0.8,1.5-0.9,1.6c0,0-0.1,0.1-0.1,0.2
	c0,0.1-0.1,0.2-0.1,0.2c0,0-0.5,0.3-0.7,0.3c-0.2,0.1-0.4,0-0.5,0c-0.1-0.1-0.1-0.1-0.2-0.4c-0.4-0.9-0.9-2.4-0.9-2.7
	c0-0.2,0.1-0.4,0.4-0.6c0.5-0.3,1-0.3,1.1,0c0,0,0.1,0.3,0.2,0.5c0.1,0.4,0.4,1.3,0.4,1.3c0,0,0.1-0.2,0.3-0.5
	c1.4-2.5,3.1-4.7,5-6.8c0.3-0.3,0.3-0.4,0.5-0.4C131,58.2,131.5,58.2,131.5,58.3z"/>
<path d="M254.5,58.3c0,0-0.1,0.2-0.3,0.3c-2,2.2-3.7,4.4-5.1,6.9c-0.4,0.7-0.8,1.5-0.9,1.6c0,0-0.1,0.1-0.1,0.2
	c0,0.1-0.1,0.2-0.1,0.2c0,0-0.5,0.3-0.7,0.3c-0.2,0.1-0.4,0-0.5,0c-0.1-0.1-0.1-0.1-0.2-0.4c-0.4-0.9-0.9-2.4-0.9-2.7
	c0-0.2,0.1-0.4,0.4-0.6c0.5-0.3,1-0.3,1.1,0c0,0,0.1,0.3,0.2,0.5c0.1,0.4,0.4,1.3,0.4,1.3c0,0,0.1-0.2,0.3-0.5
	c1.4-2.5,3.1-4.7,5-6.8c0.3-0.3,0.3-0.4,0.5-0.4C254,58.2,254.5,58.2,254.5,58.3z"/>
<path d="M342.3,58.3c0,0-0.1,0.2-0.3,0.3c-2,2.2-3.7,4.4-5.1,6.9c-0.4,0.7-0.8,1.5-0.9,1.6c0,0-0.1,0.1-0.1,0.2
	c0,0.1-0.1,0.2-0.1,0.2c0,0-0.5,0.3-0.7,0.3c-0.2,0.1-0.4,0-0.5,0c-0.1-0.1-0.1-0.1-0.2-0.4c-0.4-0.9-0.9-2.4-0.9-2.7
	c0-0.2,0.1-0.4,0.4-0.6c0.5-0.3,1-0.3,1.1,0c0,0,0.1,0.3,0.2,0.5c0.1,0.4,0.4,1.3,0.4,1.3c0,0,0.1-0.2,0.3-0.5
	c1.4-2.5,3.1-4.7,5-6.8c0.3-0.3,0.3-0.4,0.5-0.4C341.8,58.2,342.3,58.2,342.3,58.3z"/>
<text transform="matrix(1 0 0 1 13.7461 87.1299)"><tspan x="0" y="0" class="st1 st2">re</tspan><tspan x="10" y="0" class="st1 st2">p</tspan><tspan x="15.2" y="0" class="st1 st2">ort</tspan></text>
<path d="M78.6,77.5c0,0-0.1,0.2-0.3,0.3c-2,2.2-3.7,4.4-5.1,6.9c-0.4,0.7-0.8,1.5-0.9,1.6c0,0-0.1,0.1-0.1,0.2
	c0,0.1-0.1,0.2-0.1,0.2c0,0-0.5,0.3-0.7,0.3c-0.2,0.1-0.4,0-0.5,0c-0.1-0.1-0.1-0.1-0.2-0.4c-0.4-0.9-0.9-2.4-0.9-2.7
	c0-0.2,0.1-0.4,0.4-0.6c0.5-0.3,1-0.3,1.1,0c0,0,0.1,0.3,0.2,0.5C71.7,84.2,72,85,72,85c0,0,0.1-0.2,0.3-0.5c1.4-2.5,3.1-4.7,5-6.8
	c0.3-0.3,0.3-0.4,0.5-0.4C78.1,77.3,78.6,77.4,78.6,77.5z"/>
<path d="M131.5,77.5c0,0-0.1,0.2-0.3,0.3c-2,2.2-3.7,4.4-5.1,6.9c-0.4,0.7-0.8,1.5-0.9,1.6c0,0-0.1,0.1-0.1,0.2
	c0,0.1-0.1,0.2-0.1,0.2c0,0-0.5,0.3-0.7,0.3c-0.2,0.1-0.4,0-0.5,0c-0.1-0.1-0.1-0.1-0.2-0.4c-0.4-0.9-0.9-2.4-0.9-2.7
	c0-0.2,0.1-0.4,0.4-0.6c0.5-0.3,1-0.3,1.1,0c0,0,0.1,0.3,0.2,0.5c0.1,0.4,0.4,1.3,0.4,1.3c0,0,0.1-0.2,0.3-0.5
	c1.4-2.5,3.1-4.7,5-6.8c0.3-0.3,0.3-0.4,0.5-0.4C131,77.3,131.5,77.4,131.5,77.5z"/>
<path d="M182.1,77.5c0,0-0.1,0.2-0.3,0.3c-2,2.2-3.7,4.4-5.1,6.9c-0.4,0.7-0.8,1.5-0.9,1.6c0,0-0.1,0.1-0.1,0.2
	c0,0.1-0.1,0.2-0.1,0.2c0,0-0.5,0.3-0.7,0.3c-0.2,0.1-0.4,0-0.5,0c-0.1-0.1-0.1-0.1-0.2-0.4c-0.4-0.9-0.9-2.4-0.9-2.7
	c0-0.2,0.1-0.4,0.4-0.6c0.5-0.3,1-0.3,1.1,0c0,0,0.1,0.3,0.2,0.5c0.1,0.4,0.4,1.3,0.4,1.3c0,0,0.1-0.2,0.3-0.5
	c1.4-2.5,3.1-4.7,5-6.8c0.3-0.3,0.3-0.4,0.5-0.4C181.7,77.3,182.1,77.4,182.1,77.5z"/>
<path d="M342.3,77.5c0,0-0.1,0.2-0.3,0.3c-2,2.2-3.7,4.4-5.1,6.9c-0.4,0.7-0.8,1.5-0.9,1.6c0,0-0.1,0.1-0.1,0.2
	c0,0.1-0.1,0.2-0.1,0.2c0,0-0.5,0.3-0.7,0.3c-0.2,0.1-0.4,0-0.5,0c-0.1-0.1-0.1-0.1-0.2-0.4c-0.4-0.9-0.9-2.4-0.9-2.7
	c0-0.2,0.1-0.4,0.4-0.6c0.5-0.3,1-0.3,1.1,0c0,0,0.1,0.3,0.2,0.5c0.1,0.4,0.4,1.3,0.4,1.3c0,0,0.1-0.2,0.3-0.5
	c1.4-2.5,3.1-4.7,5-6.8c0.3-0.3,0.3-0.4,0.5-0.4C341.8,77.3,342.3,77.4,342.3,77.5z"/>
<line class="st0" x1="7.8" y1="95" x2="378.3" y2="95"/>
<text transform="matrix(1 0 0 1 15.7388 103.7227)" class="st6 st7">1</text>
<text transform="matrix(1 0 0 1 22.7119 107.3379)"><tspan x="0" y="0" class="st1 st2">A</tspan><tspan x="5" y="0" class="st1 st2 st4">n</tspan><tspan x="13.3" y="0" class="st1 st2">e</tspan><tspan x="18.3" y="0" class="st1 st2">n</tspan><tspan x="23" y="0" class="st1 st2">vironme</tspan><tspan x="57.8" y="0" class="st1 st2">n</tspan><tspan x="62.5" y="0" class="st1 st2">t:</tspan></text>
<text transform="matrix(1 0 0 1 100.2319 107.3379)" class="st9 st2">\begin{abstract}</text>
<text transform="matrix(1 0 0 1 187.2349 107.3379)" class="st1 st2">…</text>
<text transform="matrix(1 0 0 1 193.9101 107.3379)" class="st9 st2">\end{abstract}</text>
<text transform="matrix(1 0 0 1 15.7388 115.6777)" class="st6 st7">2</text>
<text transform="matrix(1 0 0 1 22.7119 119.293)" class="st1 st2">Commands:</text>
<text transform="matrix(1 0 0 1 78.6631 119.293)" class="st9 st2">\frontmatter</text>
<text transform="matrix(1 0 0 1 141.4268 119.293)" class="st1 st2">,</text>
<text transform="matrix(1 0 0 1 147.5142 119.293)" class="st9 st2">\mainmatter</text>
<text transform="matrix(1 0 0 1 205.0488 119.293)" class="st1 st2">,</text>
<text transform="matrix(1 0 0 1 211.1357 119.293)" class="st9 st2">\backmatter</text>
<text transform="matrix(1 0 0 1 15.7388 127.6328)" class="st6 st7">3</text>
<text transform="matrix(1 0 0 1 22.7119 131.248)"><tspan x="0" y="0" class="st1 st2">Th</tspan><tspan x="10" y="0" class="st1 st2 st4">e</tspan><tspan x="18.3" y="0" class="st1 st2">command</tspan></text>
<text transform="matrix(1 0 0 1 88.5649 131.248)" class="st9 st2">\appendix</text>
<path d="M141.4,131.4c-1.1,0-2.2-1-2.2-2.3c0-1.2,0.9-2.3,2.1-2.3c1.2,0,1.8,1,1.8,2c0,0.2,0,0.2-0.2,0.2h-2.8c0,0.4,0,1,0.3,1.5
	c0.2,0.4,0.6,0.7,1.1,0.7c0.1,0,1,0,1.3-1c0-0.1,0-0.1,0.1-0.1c0,0,0.1,0,0.1,0.1C143.1,130.3,142.6,131.4,141.4,131.4z M141.3,127
	c-0.3,0-1.2,0.2-1.2,1.7h2.4C142.4,128.3,142.3,127,141.3,127z M147.6,131.2l-1.1,0v-0.3c0.3,0,0.4-0.2,0.4-0.2
	c0-0.1-0.1-0.2-0.2-0.3l-0.8-1c-0.6,0.7-0.9,1-0.9,1.3c0,0.1,0.1,0.3,0.3,0.3v0.3l-0.9,0c-0.3,0-0.6,0-0.8,0v-0.3
	c0.2,0,0.8,0,1.3-0.6c0.5-0.6,0.5-0.6,0.9-1.2l-1-1.3c-0.5-0.6-0.5-0.6-1.2-0.6V127c0.3,0,0.7,0,0.9,0l1.1,0v0.3
	c-0.2,0-0.3,0.1-0.3,0.2c0,0.1,0,0.1,0.1,0.2l0.8,1l0.6-0.8c0-0.1,0.1-0.2,0.1-0.3s-0.1-0.3-0.3-0.3V127c0.1,0,0.7,0,1,0
	c0.3,0,0.6,0,0.8,0v0.3c-0.5,0-0.9,0.2-1.2,0.5c-0.2,0.3-0.6,0.7-0.9,1.1l1.3,1.7c0.2,0.3,0.4,0.3,0.9,0.3v0.3
	C148.2,131.2,147.8,131.2,147.6,131.2z M150.1,131.2l-1.1,0v-0.3c0.7,0,0.8,0,0.8-0.4v-2.7c0-0.5-0.1-0.5-0.7-0.5V127l1.4-0.1v3.7
	c0,0.4,0,0.4,0.7,0.4v0.3C150.8,131.2,150.4,131.2,150.1,131.2z M150,125.8c-0.3,0-0.5-0.3-0.5-0.5c0-0.2,0.2-0.5,0.5-0.5
	c0.3,0,0.5,0.3,0.5,0.5C150.6,125.5,150.4,125.8,150,125.8z M153.4,131.4c-0.2,0-0.7,0-1.1-0.4c-0.2,0.2-0.2,0.2-0.2,0.2
	c-0.2,0.2-0.2,0.2-0.2,0.2c-0.1,0-0.1-0.1-0.1-0.2v-1.3c0-0.2,0-0.2,0.1-0.2c0.1,0,0.1,0,0.1,0.2c0.2,0.8,0.5,1.4,1.4,1.4
	c0.8,0,1.1-0.4,1.1-0.9c0-0.7-0.8-0.9-1-0.9c-0.7-0.1-1-0.2-1.3-0.5c-0.3-0.2-0.4-0.5-0.4-0.8c0-0.6,0.4-1.2,1.6-1.2
	c0.1,0,0.6,0,0.9,0.3c0,0,0.1-0.1,0.2-0.2c0.1-0.1,0.1-0.1,0.2-0.1c0.1,0,0.1,0.1,0.1,0.2v1c0,0.2,0,0.2-0.1,0.2c0,0-0.1,0-0.1-0.1
	c0-0.3-0.1-1.2-1.2-1.2c-0.9,0-1.1,0.4-1.1,0.8c0,0.6,0.7,0.7,1.2,0.8c0.4,0.1,0.8,0.2,1.1,0.5c0.1,0.1,0.4,0.4,0.4,0.9
	C155,130.7,154.5,131.4,153.4,131.4z M157.7,131.4c-0.4,0-1.3-0.1-1.3-1.3v-2.8h-0.8V127c1,0,1.3-1.1,1.3-1.9h0.2v1.8h1.4v0.3h-1.4
	v2.8c0,0.2,0,1.1,0.7,1.1c0.4,0,0.7-0.4,0.7-1.1v-0.5h0.2v0.6C158.6,130.7,158.4,131.4,157.7,131.4z M161.2,131.4
	c-0.2,0-0.7,0-1.1-0.4c-0.2,0.2-0.2,0.2-0.2,0.2c-0.2,0.2-0.2,0.2-0.2,0.2c-0.1,0-0.1-0.1-0.1-0.2v-1.3c0-0.2,0-0.2,0.1-0.2
	c0.1,0,0.1,0,0.1,0.2c0.2,0.8,0.5,1.4,1.4,1.4c0.8,0,1.1-0.4,1.1-0.9c0-0.7-0.8-0.9-1-0.9c-0.7-0.1-1-0.2-1.3-0.5
	c-0.3-0.2-0.4-0.5-0.4-0.8c0-0.6,0.4-1.2,1.6-1.2c0.1,0,0.6,0,0.9,0.3c0,0,0.1-0.1,0.2-0.2c0.1-0.1,0.1-0.1,0.2-0.1
	c0.1,0,0.1,0.1,0.1,0.2v1c0,0.2,0,0.2-0.1,0.2c0,0-0.1,0-0.1-0.1c0-0.3-0.1-1.2-1.2-1.2c-0.9,0-1.1,0.4-1.1,0.8
	c0,0.6,0.7,0.7,1.2,0.8c0.4,0.1,0.8,0.2,1.1,0.5c0.1,0.1,0.4,0.4,0.4,0.9C162.8,130.7,162.3,131.4,161.2,131.4z M167.9,131.2l-1.1,0
	v-0.3c0.7,0,0.8,0,0.8-0.4v-2.7c0-0.5-0.1-0.5-0.7-0.5V127l1.4-0.1v3.7c0,0.4,0,0.4,0.7,0.4v0.3
	C168.6,131.2,168.2,131.2,167.9,131.2z M167.8,125.8c-0.3,0-0.5-0.3-0.5-0.5c0-0.2,0.2-0.5,0.5-0.5c0.3,0,0.5,0.3,0.5,0.5
	C168.4,125.5,168.2,125.8,167.8,125.8z M173.4,131.2l-1.1,0v-0.3c0.7,0,0.8,0,0.8-0.4v-2.3c0-0.6-0.1-1.1-0.7-1.1
	c-0.6,0-1.3,0.6-1.3,1.6v1.8c0,0.4,0.1,0.4,0.8,0.4v0.3l-1.1,0l-1.1,0v-0.3c0.7,0,0.8,0,0.8-0.4v-2.7c0-0.5-0.1-0.6-0.8-0.6V127
	l1.4-0.1v1c0.3-0.6,0.7-1,1.5-1c0.6,0,0.9,0.2,1,0.4c0.3,0.4,0.3,0.7,0.3,1.5v1.9c0,0.3,0.3,0.3,0.8,0.3v0.3L173.4,131.2z
	 M183.9,131.2c-0.4,0-1.1,0-1.4,0v-0.3c0.3,0,0.8,0,0.8-0.3c0,0,0-0.1,0-0.1l-0.5-1.5h-2.5l-0.5,1.3c0,0,0,0.1,0,0.1
	c0,0.3,0.2,0.5,0.7,0.5v0.3l-1.1,0l-1,0v-0.3c0.5,0,0.9-0.2,1.1-0.7l2.1-6c0-0.1,0.1-0.2,0.2-0.2s0.2,0.1,0.2,0.2l2.2,6.2
	c0.1,0.3,0.2,0.4,0.8,0.4h0.2v0.3L183.9,131.2z M181.5,125.4l-1.1,3.2h2.2L181.5,125.4z M188.7,127.9c-0.2,0-0.4-0.1-0.4-0.4
	c0-0.3,0.2-0.4,0.2-0.4c0,0,0,0-0.1,0c-0.8,0-1.2,0.9-1.2,1.9v1.5c0,0.4,0,0.5,0.8,0.5h0.2v0.3c-0.4,0-0.9,0-1.3,0l-1.1,0v-0.3
	c0.7,0,0.8,0,0.8-0.4v-2.7c0-0.5-0.1-0.6-0.8-0.6V127l1.4-0.1v1.1c0.1-0.4,0.5-1.1,1.2-1.1c0.4,0,0.7,0.3,0.7,0.6
	S188.9,127.9,188.7,127.9z M191.8,131.4c-0.4,0-1.3-0.1-1.3-1.3v-2.8h-0.8V127c1,0,1.3-1.1,1.3-1.9h0.2v1.8h1.4v0.3h-1.4v2.8
	c0,0.2,0,1.1,0.7,1.1c0.4,0,0.7-0.4,0.7-1.1v-0.5h0.2v0.6C192.8,130.7,192.5,131.4,191.8,131.4z M194.8,131.2l-1.1,0v-0.3
	c0.7,0,0.8,0,0.8-0.4v-2.7c0-0.5-0.1-0.5-0.7-0.5V127l1.4-0.1v3.7c0,0.4,0,0.4,0.7,0.4v0.3C195.5,131.2,195.1,131.2,194.8,131.2z
	 M194.7,125.8c-0.3,0-0.5-0.3-0.5-0.5c0-0.2,0.2-0.5,0.5-0.5c0.3,0,0.5,0.3,0.5,0.5C195.2,125.5,195,125.8,194.7,125.8z
	 M198.6,131.4c-1.2,0-2.1-1-2.1-2.3c0-1.2,0.9-2.3,2.2-2.3c0.8,0,1.5,0.4,1.5,1.1c0,0.3-0.2,0.5-0.5,0.5c-0.3,0-0.5-0.2-0.5-0.5
	c0-0.1,0.1-0.4,0.5-0.5c-0.3-0.4-1-0.4-1.1-0.4c-0.5,0-1.3,0.4-1.3,2c0,1.6,0.9,2,1.4,2c0.4,0,1-0.1,1.3-1c0-0.1,0-0.1,0.1-0.1
	c0,0,0.1,0,0.1,0.1C200.2,130.2,199.9,131.4,198.6,131.4z M202,131.2l-1.1,0v-0.3c0.7,0,0.8,0,0.8-0.4v-5.2c0-0.5-0.1-0.6-0.8-0.6
	v-0.3l1.4-0.1v6.2c0,0.4,0.1,0.4,0.8,0.4v0.3L202,131.2z M205.8,131.4c-1.1,0-2.2-1-2.2-2.3c0-1.2,0.9-2.3,2.1-2.3
	c1.2,0,1.8,1,1.8,2c0,0.2,0,0.2-0.2,0.2h-2.8c0,0.4,0,1,0.3,1.5c0.2,0.4,0.6,0.7,1.1,0.7c0.1,0,1,0,1.3-1c0-0.1,0-0.1,0.1-0.1
	c0,0,0.1,0,0.1,0.1C207.4,130.3,207,131.4,205.8,131.4z M205.6,127c-0.3,0-1.2,0.2-1.2,1.7h2.4C206.8,128.3,206.7,127,205.6,127z
	 M213.4,131.4c-0.4,0-1.3-0.1-1.3-1.3v-2.8h-0.8V127c1,0,1.3-1.1,1.3-1.9h0.2v1.8h1.4v0.3h-1.4v2.8c0,0.2,0,1.1,0.7,1.1
	c0.4,0,0.7-0.4,0.7-1.1v-0.5h0.2v0.6C214.3,130.7,214.1,131.4,213.4,131.4z M217.4,131.4c-1.2,0-2.2-1-2.2-2.2c0-1.2,1-2.3,2.2-2.3
	c1.2,0,2.2,1.1,2.2,2.3C219.6,130.4,218.6,131.4,217.4,131.4z M218.5,127.7c-0.3-0.4-0.7-0.6-1.1-0.6c-0.4,0-0.9,0.2-1.1,0.7
	c-0.2,0.4-0.2,1-0.2,1.4c0,0.4,0,1,0.2,1.4c0.3,0.5,0.7,0.7,1.1,0.7c0.5,0,0.9-0.3,1.2-0.7c0.2-0.4,0.2-1,0.2-1.3
	C218.8,128.7,218.8,128.1,218.5,127.7z M222.7,131.4c-1.2,0-2.2-1-2.2-2.2c0-1.2,1-2.3,2.2-2.3c1.2,0,2.2,1.1,2.2,2.3
	C224.9,130.4,223.9,131.4,222.7,131.4z M223.8,127.7c-0.3-0.4-0.7-0.6-1.1-0.6c-0.4,0-0.9,0.2-1.1,0.7c-0.2,0.4-0.2,1-0.2,1.4
	c0,0.4,0,1,0.2,1.4c0.3,0.5,0.7,0.7,1.1,0.7c0.5,0,0.9-0.3,1.2-0.7c0.2-0.4,0.2-1,0.2-1.3C224,128.7,224,128.1,223.8,127.7z
	 M226.3,133.2c0,0-0.1,0-0.1-0.1c0,0,0,0,0.1-0.1c0.4-0.5,0.7-1.1,0.7-1.9c-0.1,0.1-0.2,0.2-0.4,0.2c-0.4,0-0.5-0.3-0.5-0.5
	c0-0.3,0.2-0.5,0.5-0.5c0.4,0,0.6,0.4,0.6,1C227.2,132.4,226.4,133.2,226.3,133.2z M234.2,131.4c-0.7,0-1.2-0.5-1.3-0.7l-0.4,0.6
	h-0.2v-5.9c0-0.5-0.1-0.6-0.8-0.6v-0.3l1.4-0.1v3.2c0.2-0.2,0.6-0.6,1.4-0.6c1.1,0,2.1,1,2.1,2.3
	C236.4,130.4,235.4,131.4,234.2,131.4z M235.3,127.7c-0.2-0.4-0.6-0.6-1-0.6c-0.2,0-0.8,0.1-1.2,0.6c-0.1,0.2-0.1,0.2-0.1,0.4v2.1
	c0,0.2,0,0.2,0.1,0.4c0.2,0.4,0.6,0.6,1,0.6c0.5,0,0.9-0.3,1.1-0.6c0.3-0.4,0.3-1,0.3-1.4C235.6,128.7,235.6,128.1,235.3,127.7z
	 M240.7,131.4v-0.9c-0.3,0.6-0.7,0.9-1.3,0.9c-1.5,0-1.5-0.9-1.5-1.7v-1.5c0-0.9,0-0.9-0.8-0.9V127l1.5-0.1v3.3c0,0.5,0,1,0.9,1
	c0.7,0,1.2-0.7,1.2-1.5v-1.8c0-0.5-0.1-0.6-0.8-0.6V127l1.5-0.1v3.5c0,0.5,0.1,0.6,0.8,0.6v0.3L240.7,131.4z M244.6,131.4
	c-0.4,0-1.3-0.1-1.3-1.3v-2.8h-0.8V127c1,0,1.3-1.1,1.3-1.9h0.2v1.8h1.4v0.3H244v2.8c0,0.2,0,1.1,0.7,1.1c0.4,0,0.7-0.4,0.7-1.1
	v-0.5h0.2v0.6C245.6,130.7,245.3,131.4,244.6,131.4z M251.8,131.4c-0.4,0-1.3-0.1-1.3-1.3v-2.8h-0.8V127c1,0,1.3-1.1,1.3-1.9h0.2
	v1.8h1.4v0.3h-1.4v2.8c0,0.2,0,1.1,0.7,1.1c0.4,0,0.7-0.4,0.7-1.1v-0.5h0.2v0.6C252.8,130.7,252.5,131.4,251.8,131.4z M257.6,131.2
	l-1.1,0v-0.3c0.7,0,0.8,0,0.8-0.4v-2.3c0-0.6-0.1-1.1-0.7-1.1c-0.6,0-1.3,0.6-1.3,1.6v1.8c0,0.4,0.1,0.4,0.8,0.4v0.3l-1.1,0l-1.1,0
	v-0.3c0.7,0,0.8,0,0.8-0.4v-5.2c0-0.5-0.1-0.6-0.8-0.6v-0.3l1.4-0.1v3.5h0c0.2-0.4,0.6-1,1.4-1c0.6,0,0.9,0.2,1,0.4
	c0.3,0.4,0.3,0.7,0.3,1.5v1.9c0,0.3,0.3,0.3,0.8,0.3v0.3L257.6,131.2z M261.4,131.4c-1.1,0-2.2-1-2.2-2.3c0-1.2,0.9-2.3,2.1-2.3
	c1.2,0,1.8,1,1.8,2c0,0.2,0,0.2-0.2,0.2H260c0,0.4,0,1,0.3,1.5c0.2,0.4,0.6,0.7,1.1,0.7c0.1,0,1,0,1.3-1c0-0.1,0-0.1,0.1-0.1
	c0,0,0.1,0,0.1,0.1C263.1,130.3,262.6,131.4,261.4,131.4z M261.3,127c-0.3,0-1.2,0.2-1.2,1.7h2.4C262.4,128.3,262.3,127,261.3,127z
	 M266.5,127.9c-0.2,0-0.4-0.1-0.4-0.4c0-0.3,0.2-0.4,0.2-0.4c0,0,0,0-0.1,0c-0.8,0-1.2,0.9-1.2,1.9v1.5c0,0.4,0,0.5,0.8,0.5h0.2v0.3
	c-0.4,0-0.9,0-1.3,0l-1.1,0v-0.3c0.7,0,0.8,0,0.8-0.4v-2.7c0-0.5-0.1-0.6-0.8-0.6V127l1.4-0.1v1.1c0.1-0.4,0.5-1.1,1.2-1.1
	c0.4,0,0.7,0.3,0.7,0.6S266.7,127.9,266.5,127.9z M269.7,131.4c-1.1,0-2.2-1-2.2-2.3c0-1.2,0.9-2.3,2.1-2.3c1.2,0,1.8,1,1.8,2
	c0,0.2,0,0.2-0.2,0.2h-2.8c0,0.4,0,1,0.3,1.5c0.2,0.4,0.6,0.7,1.1,0.7c0.1,0,1,0,1.3-1c0-0.1,0-0.1,0.1-0.1c0,0,0.1,0,0.1,0.1
	C271.4,130.3,270.9,131.4,269.7,131.4z M269.6,127c-0.3,0-1.2,0.2-1.2,1.7h2.4C270.7,128.3,270.6,127,269.6,127z M272.8,127.3
	c0,0-0.1,0-0.1-0.1c0,0,0,0,0.1-0.2c0.6-0.6,0.7-1.3,0.7-1.7c0,0,0-0.2,0-0.2s0,0,0,0c-0.1,0.1-0.2,0.2-0.4,0.2
	c-0.4,0-0.5-0.3-0.5-0.5c0-0.3,0.2-0.5,0.5-0.5c0.4,0,0.7,0.4,0.7,1C273.7,126.6,272.9,127.3,272.8,127.3z M276.4,131.4
	c-0.2,0-0.7,0-1.1-0.4c-0.2,0.2-0.2,0.2-0.2,0.2c-0.2,0.2-0.2,0.2-0.2,0.2c-0.1,0-0.1-0.1-0.1-0.2v-1.3c0-0.2,0-0.2,0.1-0.2
	c0.1,0,0.1,0,0.1,0.2c0.2,0.8,0.5,1.4,1.4,1.4c0.8,0,1.1-0.4,1.1-0.9c0-0.7-0.8-0.9-1-0.9c-0.7-0.1-1-0.2-1.3-0.5
	c-0.3-0.2-0.4-0.5-0.4-0.8c0-0.6,0.4-1.2,1.6-1.2c0.1,0,0.6,0,0.9,0.3c0,0,0.1-0.1,0.2-0.2c0.1-0.1,0.1-0.1,0.2-0.1
	c0.1,0,0.1,0.1,0.1,0.2v1c0,0.2,0,0.2-0.1,0.2c0,0-0.1,0-0.1-0.1c0-0.3-0.1-1.2-1.2-1.2c-0.9,0-1.1,0.4-1.1,0.8
	c0,0.6,0.7,0.7,1.2,0.8c0.4,0.1,0.8,0.2,1.1,0.5c0.1,0.1,0.4,0.4,0.4,0.9C278,130.7,277.6,131.4,276.4,131.4z M285.9,131.2l-1.1,0
	v-0.3c0.7,0,0.8,0,0.8-0.4v-2.3c0-0.6-0.1-1.1-0.7-1.1c-0.6,0-1.3,0.6-1.3,1.6v1.8c0,0.4,0.1,0.4,0.8,0.4v0.3l-1.1,0l-1.1,0v-0.3
	c0.7,0,0.8,0,0.8-0.4v-2.7c0-0.5-0.1-0.6-0.8-0.6V127l1.4-0.1v1c0.3-0.6,0.7-1,1.5-1c0.6,0,0.9,0.2,1,0.4c0.3,0.4,0.3,0.7,0.3,1.5
	v1.9c0,0.3,0.3,0.3,0.8,0.3v0.3L285.9,131.2z M289.7,131.4c-1.2,0-2.2-1-2.2-2.2c0-1.2,1-2.3,2.2-2.3c1.2,0,2.2,1.1,2.2,2.3
	C291.9,130.4,290.9,131.4,289.7,131.4z M290.8,127.7c-0.3-0.4-0.7-0.6-1.1-0.6c-0.4,0-0.9,0.2-1.1,0.7c-0.2,0.4-0.2,1-0.2,1.4
	c0,0.4,0,1,0.2,1.4c0.3,0.5,0.7,0.7,1.1,0.7c0.5,0,0.9-0.3,1.2-0.7c0.2-0.4,0.2-1,0.2-1.3C291.1,128.7,291.1,128.1,290.8,127.7z
	 M298.5,131.4c-0.8,0-1.2-0.5-1.2-0.7v0.1v1.7c0,0.4,0.1,0.4,0.8,0.4v0.3l-1.1,0l-1.1,0v-0.3c0.7,0,0.8,0,0.8-0.4v-4.7
	c0-0.4-0.1-0.5-0.8-0.5V127l1.4-0.1v0.7c0.2-0.2,0.6-0.7,1.4-0.7c1.1,0,2.1,1,2.1,2.3C300.7,130.4,299.7,131.4,298.5,131.4z
	 M298.6,127.1c-0.5,0-1,0.3-1.3,0.8v2.2c0,0.2,0,0.2,0.1,0.4c0.3,0.4,0.6,0.6,1,0.6c0.7,0,1.4-0.8,1.4-2
	C299.9,128,299.3,127.1,298.6,127.1z M304.3,127.9c-0.2,0-0.4-0.1-0.4-0.4c0-0.3,0.2-0.4,0.2-0.4c0,0,0,0-0.1,0
	c-0.8,0-1.2,0.9-1.2,1.9v1.5c0,0.4,0,0.5,0.8,0.5h0.2v0.3c-0.4,0-0.9,0-1.3,0l-1.1,0v-0.3c0.7,0,0.8,0,0.8-0.4v-2.7
	c0-0.5-0.1-0.6-0.8-0.6V127l1.4-0.1v1.1c0.1-0.4,0.5-1.1,1.2-1.1c0.4,0,0.7,0.3,0.7,0.6S304.4,127.9,304.3,127.9z M307.4,131.4
	c-1.1,0-2.2-1-2.2-2.3c0-1.2,0.9-2.3,2.1-2.3c1.2,0,1.8,1,1.8,2c0,0.2,0,0.2-0.2,0.2h-2.8c0,0.4,0,1,0.3,1.5
	c0.2,0.4,0.6,0.7,1.1,0.7c0.1,0,1,0,1.3-1c0-0.1,0-0.1,0.1-0.1c0,0,0.1,0,0.1,0.1C309.1,130.3,308.7,131.4,307.4,131.4z M307.3,127
	c-0.3,0-1.2,0.2-1.2,1.7h2.4C308.4,128.3,308.4,127,307.3,127z M313.5,131.2l-1.1,0v-0.3c0.7,0,0.8,0,0.8-0.4v-2.7
	c0-0.4-0.1-0.5-0.5-0.5h-1.6v3.2c0,0.4,0.1,0.4,0.8,0.4v0.3l-1.1,0l-1.1,0v-0.3c0.7,0,0.8,0,0.8-0.4v-3.2h-0.8V127h0.8v-1.1
	c0-1.1,1.2-1.6,2.1-1.6c0.7,0,1.3,0.4,1.3,1c0,0.3-0.2,0.5-0.5,0.5c-0.2,0-0.4-0.1-0.4-0.5c0-0.2,0.1-0.4,0.5-0.5
	c-0.2-0.2-0.6-0.3-0.9-0.3c-0.6,0-1.5,0.4-1.5,1.4v1.1h1.2c0.1,0,0.2,0,0.2,0c0,0,0,0,0.2,0l1.3-0.1v3.7c0,0.4,0.1,0.4,0.8,0.4v0.3
	L313.5,131.2z M319.1,131.2l-1.1,0v-0.3c0.3,0,0.4-0.2,0.4-0.2c0-0.1-0.1-0.2-0.2-0.3l-0.8-1c-0.6,0.7-0.9,1-0.9,1.3
	c0,0.1,0.1,0.3,0.3,0.3v0.3l-0.9,0c-0.3,0-0.6,0-0.8,0v-0.3c0.2,0,0.8,0,1.3-0.6c0.5-0.6,0.5-0.6,0.9-1.2l-1-1.3
	c-0.5-0.6-0.5-0.6-1.2-0.6V127c0.3,0,0.7,0,0.9,0l1.1,0v0.3c-0.2,0-0.3,0.1-0.3,0.2c0,0.1,0,0.1,0.1,0.2l0.8,1l0.6-0.8
	c0-0.1,0.1-0.2,0.1-0.3s-0.1-0.3-0.3-0.3V127c0.1,0,0.7,0,1,0c0.3,0,0.6,0,0.8,0v0.3c-0.5,0-0.9,0.2-1.2,0.5
	c-0.2,0.3-0.6,0.7-0.9,1.1l1.3,1.7c0.2,0.3,0.4,0.3,0.9,0.3v0.3C319.8,131.2,319.4,131.2,319.1,131.2z M324.9,127.3
	c-0.4,0-0.7-0.4-0.7-1c0-1.2,0.8-1.9,0.9-1.9c0,0,0.1,0,0.1,0.1c0,0,0,0-0.1,0.2c-0.6,0.6-0.7,1.3-0.7,1.7c0,0,0,0.2,0,0.2s0,0,0,0
	c0.1-0.1,0.2-0.2,0.4-0.2c0.4,0,0.5,0.3,0.5,0.5C325.4,127.1,325.2,127.3,324.9,127.3z M326.8,127.3c-0.4,0-0.7-0.4-0.7-1
	c0-1.2,0.8-1.9,0.9-1.9c0,0,0.1,0,0.1,0.1c0,0,0,0-0.1,0.2c-0.6,0.6-0.7,1.3-0.7,1.7c0,0,0,0.2,0,0.2s0,0,0,0
	c0.1-0.1,0.2-0.2,0.4-0.2c0.4,0,0.5,0.3,0.5,0.5C327.4,127.1,327.2,127.3,326.8,127.3z M334.1,131.2c-0.4,0-1.1,0-1.4,0v-0.3
	c0.3,0,0.8,0,0.8-0.3c0,0,0-0.1,0-0.1l-0.5-1.5h-2.5l-0.5,1.3c0,0,0,0.1,0,0.1c0,0.3,0.2,0.5,0.7,0.5v0.3l-1.1,0l-1,0v-0.3
	c0.5,0,0.9-0.2,1.1-0.7l2.1-6c0-0.1,0.1-0.2,0.2-0.2s0.2,0.1,0.2,0.2l2.2,6.2c0.1,0.3,0.2,0.4,0.8,0.4h0.2v0.3L334.1,131.2z
	 M331.7,125.4l-1.1,3.2h2.2L331.7,125.4z M338.7,131.4c-0.8,0-1.2-0.5-1.2-0.7v0.1v1.7c0,0.4,0.1,0.4,0.8,0.4v0.3l-1.1,0l-1.1,0
	v-0.3c0.7,0,0.8,0,0.8-0.4v-4.7c0-0.4-0.1-0.5-0.8-0.5V127l1.4-0.1v0.7c0.2-0.2,0.6-0.7,1.4-0.7c1.1,0,2.1,1,2.1,2.3
	C340.9,130.4,339.8,131.4,338.7,131.4z M338.7,127.1c-0.5,0-1,0.3-1.3,0.8v2.2c0,0.2,0,0.2,0.1,0.4c0.3,0.4,0.6,0.6,1,0.6
	c0.7,0,1.4-0.8,1.4-2C340.1,128,339.4,127.1,338.7,127.1z M344.2,131.4c-0.8,0-1.2-0.5-1.2-0.7v0.1v1.7c0,0.4,0.1,0.4,0.8,0.4v0.3
	l-1.1,0l-1.1,0v-0.3c0.7,0,0.8,0,0.8-0.4v-4.7c0-0.4-0.1-0.5-0.8-0.5V127l1.4-0.1v0.7c0.2-0.2,0.6-0.7,1.4-0.7c1.1,0,2.1,1,2.1,2.3
	C346.4,130.4,345.4,131.4,344.2,131.4z M344.3,127.1c-0.5,0-1,0.3-1.3,0.8v2.2c0,0.2,0,0.2,0.1,0.4c0.3,0.4,0.6,0.6,1,0.6
	c0.7,0,1.4-0.8,1.4-2C345.6,128,345,127.1,344.3,127.1z M349.5,131.4c-1.1,0-2.2-1-2.2-2.3c0-1.2,0.9-2.3,2.1-2.3c1.2,0,1.8,1,1.8,2
	c0,0.2,0,0.2-0.2,0.2h-2.8c0,0.4,0,1,0.3,1.5c0.2,0.4,0.6,0.7,1.1,0.7c0.1,0,1,0,1.3-1c0-0.1,0-0.1,0.1-0.1c0,0,0.1,0,0.1,0.1
	C351.2,130.3,350.7,131.4,349.5,131.4z M349.4,127c-0.3,0-1.2,0.2-1.2,1.7h2.4C350.5,128.3,350.4,127,349.4,127z M355.7,131.2
	l-1.1,0v-0.3c0.7,0,0.8,0,0.8-0.4v-2.3c0-0.6-0.1-1.1-0.7-1.1c-0.6,0-1.3,0.6-1.3,1.6v1.8c0,0.4,0.1,0.4,0.8,0.4v0.3l-1.1,0l-1.1,0
	v-0.3c0.7,0,0.8,0,0.8-0.4v-2.7c0-0.5-0.1-0.6-0.8-0.6V127l1.4-0.1v1c0.3-0.6,0.7-1,1.5-1c0.6,0,0.9,0.2,1,0.4
	c0.3,0.4,0.3,0.7,0.3,1.5v1.9c0,0.3,0.3,0.3,0.8,0.3v0.3L355.7,131.2z M360.8,131.4v-0.7c-0.2,0.3-0.7,0.7-1.3,0.7
	c-1.1,0-2.1-1-2.1-2.3c0-1.3,1-2.3,2.2-2.3c0.5,0,1,0.3,1.3,0.6v-2.2c0-0.5-0.1-0.6-0.8-0.6v-0.3l1.4-0.1v6c0,0.5,0.1,0.6,0.8,0.6
	v0.3L360.8,131.4z M360.8,128c0-0.2,0-0.2-0.1-0.4c-0.3-0.4-0.7-0.6-1.1-0.6c-0.5,0-0.9,0.3-1.1,0.6c-0.3,0.4-0.3,1-0.3,1.4
	c0,0.4,0,1,0.3,1.4c0.2,0.4,0.6,0.6,1,0.6c0.4,0,0.9-0.2,1.2-0.7c0.1-0.2,0.1-0.2,0.1-0.4V128z M364,131.2l-1.1,0v-0.3
	c0.7,0,0.8,0,0.8-0.4v-2.7c0-0.5-0.1-0.5-0.7-0.5V127l1.4-0.1v3.7c0,0.4,0,0.4,0.7,0.4v0.3C364.7,131.2,364.3,131.2,364,131.2z
	 M363.9,125.8c-0.3,0-0.5-0.3-0.5-0.5c0-0.2,0.2-0.5,0.5-0.5c0.3,0,0.5,0.3,0.5,0.5C364.5,125.5,364.3,125.8,363.9,125.8z
	 M369.5,131.2l-1.1,0v-0.3c0.3,0,0.4-0.2,0.4-0.2c0-0.1-0.1-0.2-0.2-0.3l-0.8-1c-0.6,0.7-0.9,1-0.9,1.3c0,0.1,0.1,0.3,0.3,0.3v0.3
	l-0.9,0c-0.3,0-0.6,0-0.8,0v-0.3c0.2,0,0.8,0,1.3-0.6c0.5-0.6,0.5-0.6,0.9-1.2l-1-1.3c-0.5-0.6-0.5-0.6-1.2-0.6V127
	c0.3,0,0.7,0,0.9,0l1.1,0v0.3c-0.2,0-0.3,0.1-0.3,0.2c0,0.1,0,0.1,0.1,0.2l0.8,1l0.6-0.8c0-0.1,0.1-0.2,0.1-0.3s-0.1-0.3-0.3-0.3
	V127c0.1,0,0.7,0,1,0c0.3,0,0.6,0,0.8,0v0.3c-0.5,0-0.9,0.2-1.2,0.5c-0.2,0.3-0.6,0.7-0.9,1.1l1.3,1.7c0.2,0.3,0.4,0.3,0.9,0.3v0.3
	C370.2,131.2,369.8,131.2,369.5,131.2z M371.7,127.3c0,0-0.1,0-0.1-0.1c0,0,0,0,0.1-0.2c0.6-0.6,0.7-1.3,0.7-1.7c0,0,0-0.2,0-0.2
	s0,0,0,0c-0.1,0.1-0.2,0.2-0.4,0.2c-0.4,0-0.5-0.3-0.5-0.5c0-0.3,0.2-0.5,0.5-0.5c0.4,0,0.7,0.4,0.7,1
	C372.6,126.6,371.8,127.3,371.7,127.3z M373.6,127.3c0,0-0.1,0-0.1-0.1c0,0,0,0,0.1-0.2c0.6-0.6,0.7-1.3,0.7-1.7c0,0,0-0.2,0-0.2
	s0,0,0,0c-0.1,0.1-0.2,0.2-0.4,0.2c-0.4,0-0.5-0.3-0.5-0.5c0-0.3,0.2-0.5,0.5-0.5c0.4,0,0.7,0.4,0.7,1
	C374.6,126.6,373.7,127.3,373.6,127.3z M375.3,131.2c-0.3,0-0.5-0.2-0.5-0.5c0-0.3,0.2-0.5,0.5-0.5c0.3,0,0.5,0.2,0.5,0.5
	C375.8,131,375.6,131.2,375.3,131.2z"/>
<path d="M46.9,146.9c-0.1-1.6-0.3-1.9-1.8-1.9c-0.2,0-0.5,0-0.6,0c-0.2,0-0.2,0.2-0.2,0.4v5.3c0,0.3,0,0.5,1,0.5h0.4v0.3
	c-0.4,0-1.4,0-1.9,0s-1.5,0-1.9,0v-0.3h0.4c1,0,1-0.1,1-0.5v-5.3c0-0.2,0-0.3-0.2-0.4c-0.1,0-0.4,0-0.5,0c-1.5,0-1.7,0.3-1.8,1.9
	h-0.2l0.2-2.2H47l0.2,2.2H46.9z M50.7,151.5c-0.5,0-0.7-0.4-0.8-0.8c-0.2,0.5-0.6,0.9-1.3,0.9c-0.6,0-1.6-0.2-1.6-1.1
	c0-0.4,0.2-1,1-1.3c0.6-0.3,1.3-0.3,1.8-0.4v-0.4c0-0.9-0.6-1.3-1.1-1.3c-0.3,0-0.8,0.1-1.1,0.5c0.5,0,0.5,0.3,0.5,0.5
	c0,0.3-0.2,0.5-0.5,0.5c-0.3,0-0.5-0.2-0.5-0.5c0-0.7,0.7-1.1,1.5-1.1c0.5,0,1,0.2,1.4,0.5c0.4,0.4,0.4,0.8,0.4,1.2v2
	c0,0,0,0.5,0.4,0.5c0.1,0,0.4-0.1,0.4-0.6V150h0.2v0.6C51.5,151.4,50.9,151.5,50.7,151.5z M49.8,149.1c-1.6,0.1-2.1,0.9-2.1,1.4
	c0,0.5,0.4,0.8,0.9,0.8c0.4,0,1.2-0.3,1.2-1.3V149.1z M54.7,151.6c-0.7,0-1.2-0.5-1.3-0.7l-0.4,0.6h-0.2v-5.9c0-0.5-0.1-0.6-0.8-0.6
	v-0.3l1.4-0.1v3.2c0.2-0.2,0.6-0.6,1.4-0.6c1.1,0,2.1,1,2.1,2.3C56.9,150.6,55.8,151.6,54.7,151.6z M55.8,147.9
	c-0.2-0.4-0.6-0.6-1-0.6c-0.2,0-0.8,0.1-1.2,0.6c-0.1,0.2-0.1,0.2-0.1,0.4v2.1c0,0.2,0,0.2,0.1,0.4c0.2,0.4,0.6,0.6,1,0.6
	c0.5,0,0.9-0.3,1.1-0.6c0.3-0.4,0.3-1,0.3-1.4C56,148.9,56,148.3,55.8,147.9z M58.7,151.4l-1.1,0v-0.3c0.7,0,0.8,0,0.8-0.4v-5.2
	c0-0.5-0.1-0.6-0.8-0.6v-0.3l1.4-0.1v6.2c0,0.4,0.1,0.4,0.8,0.4v0.3L58.7,151.4z M62.5,151.6c-1.1,0-2.2-1-2.2-2.3
	c0-1.2,0.9-2.3,2.1-2.3c1.2,0,1.8,1,1.8,2c0,0.2,0,0.2-0.2,0.2h-2.8c0,0.4,0,1,0.3,1.5c0.2,0.4,0.6,0.7,1.1,0.7c0.1,0,1,0,1.3-1
	c0-0.1,0-0.1,0.1-0.1c0,0,0.1,0,0.1,0.1C64.1,150.4,63.7,151.6,62.5,151.6z M62.3,147.2c-0.3,0-1.2,0.2-1.2,1.7h2.4
	C63.5,148.5,63.4,147.2,62.3,147.2z M70.3,151.4c-0.4,0-1.3,0-1.6,0v-0.3H69c0.9,0,0.9-0.1,0.9-0.5v-5.2c-0.5,0.3-1.1,0.3-1.3,0.3
	v-0.3c0.3,0,1.2,0,1.8-0.6c0.2,0,0.2,0,0.2,0.3v5.6c0,0.4,0,0.5,0.9,0.5h0.3v0.3C71.5,151.4,70.7,151.4,70.3,151.4z M74.1,148.2
	c-0.3,0-0.5-0.2-0.5-0.5s0.2-0.5,0.5-0.5s0.5,0.2,0.5,0.5S74.4,148.2,74.1,148.2z M74.1,151.4c-0.3,0-0.5-0.2-0.5-0.5
	c0-0.3,0.2-0.5,0.5-0.5s0.5,0.2,0.5,0.5C74.6,151.2,74.4,151.4,74.1,151.4z M82.9,151.7c-0.9,0-1.5-0.4-1.8-0.7
	c-0.3,0.5-0.4,0.6-0.4,0.6c-0.1,0.1-0.1,0.1-0.1,0.1c-0.1,0-0.1-0.1-0.1-0.2v-2c0-0.2,0-0.2,0.1-0.2c0,0,0.1,0,0.1,0.1
	c0,0.4,0,1,0.6,1.5c0.5,0.5,1.3,0.5,1.6,0.5c0.8,0,1.3-0.7,1.3-1.4c0-0.3-0.1-0.7-0.3-0.9c-0.3-0.4-0.6-0.4-0.8-0.5
	c-0.7-0.2-1.2-0.3-1.3-0.3c-0.8-0.3-1.3-1-1.3-1.8c0-1.1,0.8-1.9,1.9-1.9c0.9,0,1.3,0.4,1.6,0.7l0.3-0.6c0.1-0.1,0.1-0.1,0.1-0.1
	c0.1,0,0.1,0.1,0.1,0.2v2c0,0.2,0,0.2-0.1,0.2c-0.1,0-0.1-0.1-0.1-0.1c-0.1-0.4-0.3-2.1-1.9-2.1c-0.8,0-1.3,0.6-1.3,1.3
	c0,0.6,0.4,1.1,1,1.3l1.3,0.3c0.8,0.2,1.5,1,1.5,2C84.9,150.7,84.1,151.7,82.9,151.7z M87.8,151.6c-0.4,0-1.3-0.1-1.3-1.3v-2.8h-0.8
	v-0.2c1,0,1.3-1.1,1.3-1.9h0.2v1.8h1.4v0.3h-1.4v2.8c0,0.2,0,1.1,0.7,1.1c0.4,0,0.7-0.4,0.7-1.1v-0.5h0.2v0.6
	C88.7,150.8,88.5,151.6,87.8,151.6z M92.5,148.1c-0.2,0-0.4-0.1-0.4-0.4c0-0.3,0.2-0.4,0.2-0.4c0,0,0,0-0.1,0
	c-0.8,0-1.2,0.9-1.2,1.9v1.5c0,0.4,0,0.5,0.8,0.5H92v0.3c-0.4,0-0.9,0-1.3,0l-1.1,0v-0.3c0.7,0,0.8,0,0.8-0.4V148
	c0-0.5-0.1-0.6-0.8-0.6v-0.3L91,147v1.1c0.1-0.4,0.5-1.1,1.2-1.1c0.4,0,0.7,0.3,0.7,0.6S92.7,148.1,92.5,148.1z M97.1,151.6v-0.9
	c-0.3,0.6-0.7,0.9-1.3,0.9c-1.5,0-1.5-0.9-1.5-1.7v-1.5c0-0.9,0-0.9-0.8-0.9v-0.3L95,147v3.3c0,0.5,0,1,0.9,1c0.7,0,1.2-0.7,1.2-1.5
	V148c0-0.5-0.1-0.6-0.8-0.6v-0.3l1.5-0.1v3.5c0,0.5,0.1,0.6,0.8,0.6v0.3L97.1,151.6z M101.2,151.6c-1.2,0-2.1-1-2.1-2.3
	c0-1.2,0.9-2.3,2.2-2.3c0.8,0,1.5,0.4,1.5,1.1c0,0.3-0.2,0.5-0.5,0.5c-0.3,0-0.5-0.2-0.5-0.5c0-0.1,0.1-0.4,0.5-0.5
	c-0.3-0.4-1-0.4-1.1-0.4c-0.5,0-1.3,0.4-1.3,2c0,1.6,0.9,2,1.4,2c0.4,0,1-0.1,1.3-1c0-0.1,0-0.1,0.1-0.1c0,0,0.1,0,0.1,0.1
	C102.9,150.4,102.6,151.6,101.2,151.6z M105.5,151.6c-0.4,0-1.3-0.1-1.3-1.3v-2.8h-0.8v-0.2c1,0,1.3-1.1,1.3-1.9h0.2v1.8h1.4v0.3
	h-1.4v2.8c0,0.2,0,1.1,0.7,1.1c0.4,0,0.7-0.4,0.7-1.1v-0.5h0.2v0.6C106.5,150.8,106.2,151.6,105.5,151.6z M110.9,151.6v-0.9
	c-0.3,0.6-0.7,0.9-1.3,0.9c-1.5,0-1.5-0.9-1.5-1.7v-1.5c0-0.9,0-0.9-0.8-0.9v-0.3l1.5-0.1v3.3c0,0.5,0,1,0.9,1
	c0.7,0,1.2-0.7,1.2-1.5V148c0-0.5-0.1-0.6-0.8-0.6v-0.3l1.5-0.1v3.5c0,0.5,0.1,0.6,0.8,0.6v0.3L110.9,151.6z M115.8,148.1
	c-0.2,0-0.4-0.1-0.4-0.4c0-0.3,0.2-0.4,0.2-0.4c0,0,0,0-0.1,0c-0.8,0-1.2,0.9-1.2,1.9v1.5c0,0.4,0,0.5,0.8,0.5h0.2v0.3
	c-0.4,0-0.9,0-1.3,0l-1.1,0v-0.3c0.7,0,0.8,0,0.8-0.4V148c0-0.5-0.1-0.6-0.8-0.6v-0.3l1.4-0.1v1.1c0.1-0.4,0.5-1.1,1.2-1.1
	c0.4,0,0.7,0.3,0.7,0.6S116,148.1,115.8,148.1z M117.9,151.4l-1.1,0v-0.3c0.7,0,0.8,0,0.8-0.4V148c0-0.5-0.1-0.5-0.7-0.5v-0.3
	l1.4-0.1v3.7c0,0.4,0,0.4,0.7,0.4v0.3C118.6,151.4,118.3,151.4,117.9,151.4z M117.9,146c-0.3,0-0.5-0.3-0.5-0.5
	c0-0.2,0.2-0.5,0.5-0.5c0.3,0,0.5,0.3,0.5,0.5C118.4,145.7,118.2,146,117.9,146z M123.5,151.4l-1.1,0v-0.3c0.7,0,0.8,0,0.8-0.4v-2.3
	c0-0.6-0.1-1.1-0.7-1.1c-0.6,0-1.3,0.6-1.3,1.6v1.8c0,0.4,0.1,0.4,0.8,0.4v0.3l-1.1,0l-1.1,0v-0.3c0.7,0,0.8,0,0.8-0.4V148
	c0-0.5-0.1-0.6-0.8-0.6v-0.3l1.4-0.1v1c0.3-0.6,0.7-1,1.5-1c0.6,0,0.9,0.2,1,0.4c0.3,0.4,0.3,0.7,0.3,1.5v1.9c0,0.3,0.3,0.3,0.8,0.3
	v0.3L123.5,151.4z M129.4,147.7c-0.2,0-0.3-0.1-0.3-0.3c0-0.1,0-0.2,0.2-0.3c0,0-0.1,0-0.1,0c-0.2,0-0.5,0-0.9,0.4
	c0.2,0.2,0.4,0.6,0.4,1c0,0.8-0.7,1.5-1.6,1.5c-0.2,0-0.6,0-1-0.3c-0.2,0.2-0.2,0.4-0.2,0.5c0,0.3,0.2,0.6,0.5,0.7
	c0.1,0,0.5,0,0.7,0c0.6,0,1.2,0,1.7,0.3c0.5,0.3,0.6,0.8,0.6,1.1c0,0.8-1,1.3-2.2,1.3c-1.2,0-2.2-0.5-2.2-1.3c0-0.4,0.3-0.8,0.9-1
	c-0.3-0.2-0.4-0.6-0.4-0.9c0-0.3,0.2-0.7,0.3-0.8c-0.2-0.2-0.5-0.6-0.5-1c0-0.8,0.7-1.5,1.6-1.5c0.2,0,0.6,0,1.1,0.4
	c0.4-0.4,0.9-0.5,1.1-0.5c0.4,0,0.5,0.3,0.5,0.5C129.6,147.6,129.5,147.7,129.4,147.7z M127,151.4h-0.6c-0.4,0-0.8,0.4-0.8,0.9
	c0,0.5,0.7,1,1.7,1c1,0,1.7-0.5,1.7-1C129,151.4,127.9,151.4,127,151.4z M127,147.3c-0.4,0-0.6,0.3-0.7,0.4
	c-0.1,0.2-0.2,0.6-0.2,0.8c0,0.2,0,1.2,0.9,1.2c0.4,0,0.6-0.3,0.7-0.4c0.1-0.2,0.2-0.6,0.2-0.8C127.9,148.3,127.9,147.3,127,147.3z
	 M136.9,151.6v-0.7c-0.2,0.3-0.7,0.7-1.3,0.7c-1.1,0-2.1-1-2.1-2.3c0-1.3,1-2.3,2.2-2.3c0.5,0,1,0.3,1.3,0.6v-2.2
	c0-0.5-0.1-0.6-0.8-0.6v-0.3l1.4-0.1v6c0,0.5,0.1,0.6,0.8,0.6v0.3L136.9,151.6z M136.9,148.2c0-0.2,0-0.2-0.1-0.4
	c-0.3-0.4-0.7-0.6-1.1-0.6c-0.5,0-0.9,0.3-1.1,0.6c-0.3,0.4-0.3,1-0.3,1.4c0,0.4,0,1,0.3,1.4c0.2,0.4,0.6,0.6,1,0.6
	c0.4,0,0.9-0.2,1.2-0.7c0.1-0.2,0.1-0.2,0.1-0.4V148.2z M140.1,151.4l-1.1,0v-0.3c0.7,0,0.8,0,0.8-0.4V148c0-0.5-0.1-0.5-0.7-0.5
	v-0.3l1.4-0.1v3.7c0,0.4,0,0.4,0.7,0.4v0.3C140.8,151.4,140.4,151.4,140.1,151.4z M140,146c-0.3,0-0.5-0.3-0.5-0.5
	c0-0.2,0.2-0.5,0.5-0.5c0.3,0,0.5,0.3,0.5,0.5C140.6,145.7,140.4,146,140,146z M147.2,145.6c-0.3,0-0.4-0.2-0.4-0.4
	c0-0.2,0.2-0.4,0.3-0.4c-0.1-0.1-0.3-0.1-0.3-0.1c-0.4,0-0.9,0.5-0.9,1.4v1.2h1.2v0.3h-1.1v3.2c0,0.4,0,0.5,0.8,0.5h0.2v0.3
	c-0.4,0-0.9,0-1.3,0l-1.1,0v-0.3c0.7,0,0.8,0,0.8-0.4v-3.2h-2.1v3.2c0,0.4,0.1,0.4,0.8,0.4v0.3l-1.1,0l-1.1,0v-0.3
	c0.7,0,0.8,0,0.8-0.4v-3.2h-0.8v-0.3h0.8V146c0-1.1,1.2-1.6,2.1-1.6c0.3,0,0.8,0,1.1,0.4c0,0,0.5-0.4,1.1-0.4c0.6,0,0.9,0.3,0.9,0.7
	C147.7,145.4,147.5,145.6,147.2,145.6z M144.6,144.6c-0.6,0-1.5,0.4-1.5,1.4v1.1h2.1V146c0-0.1,0-0.2,0-0.3
	c-0.3-0.1-0.3-0.3-0.3-0.4c0-0.3,0.2-0.4,0.4-0.4C145.3,144.8,145.1,144.6,144.6,144.6z M149.7,151.6c-1.1,0-2.2-1-2.2-2.3
	c0-1.2,0.9-2.3,2.1-2.3c1.2,0,1.8,1,1.8,2c0,0.2,0,0.2-0.2,0.2h-2.8c0,0.4,0,1,0.3,1.5c0.2,0.4,0.6,0.7,1.1,0.7c0.1,0,1,0,1.3-1
	c0-0.1,0-0.1,0.1-0.1c0,0,0.1,0,0.1,0.1C151.4,150.4,150.9,151.6,149.7,151.6z M149.6,147.2c-0.3,0-1.2,0.2-1.2,1.7h2.4
	C150.7,148.5,150.6,147.2,149.6,147.2z M154.8,148.1c-0.2,0-0.4-0.1-0.4-0.4c0-0.3,0.2-0.4,0.2-0.4c0,0,0,0-0.1,0
	c-0.8,0-1.2,0.9-1.2,1.9v1.5c0,0.4,0,0.5,0.8,0.5h0.2v0.3c-0.4,0-0.9,0-1.3,0l-1.1,0v-0.3c0.7,0,0.8,0,0.8-0.4V148
	c0-0.5-0.1-0.6-0.8-0.6v-0.3l1.4-0.1v1.1c0.1-0.4,0.5-1.1,1.2-1.1c0.4,0,0.7,0.3,0.7,0.6S155,148.1,154.8,148.1z M158,151.6
	c-1.1,0-2.2-1-2.2-2.3c0-1.2,0.9-2.3,2.1-2.3c1.2,0,1.8,1,1.8,2c0,0.2,0,0.2-0.2,0.2h-2.8c0,0.4,0,1,0.3,1.5
	c0.2,0.4,0.6,0.7,1.1,0.7c0.1,0,1,0,1.3-1c0-0.1,0-0.1,0.1-0.1c0,0,0.1,0,0.1,0.1C159.7,150.4,159.2,151.6,158,151.6z M157.9,147.2
	c-0.3,0-1.2,0.2-1.2,1.7h2.4C159,148.5,158.9,147.2,157.9,147.2z M164.2,151.4l-1.1,0v-0.3c0.7,0,0.8,0,0.8-0.4v-2.3
	c0-0.6-0.1-1.1-0.7-1.1c-0.6,0-1.3,0.6-1.3,1.6v1.8c0,0.4,0.1,0.4,0.8,0.4v0.3l-1.1,0l-1.1,0v-0.3c0.7,0,0.8,0,0.8-0.4V148
	c0-0.5-0.1-0.6-0.8-0.6v-0.3l1.4-0.1v1c0.3-0.6,0.7-1,1.5-1c0.6,0,0.9,0.2,1,0.4c0.3,0.4,0.3,0.7,0.3,1.5v1.9c0,0.3,0.3,0.3,0.8,0.3
	v0.3L164.2,151.4z M168,151.6c-1.2,0-2.1-1-2.1-2.3c0-1.2,0.9-2.3,2.2-2.3c0.8,0,1.5,0.4,1.5,1.1c0,0.3-0.2,0.5-0.5,0.5
	c-0.3,0-0.5-0.2-0.5-0.5c0-0.1,0.1-0.4,0.5-0.5c-0.3-0.4-1-0.4-1.1-0.4c-0.5,0-1.3,0.4-1.3,2c0,1.6,0.9,2,1.4,2c0.4,0,1-0.1,1.3-1
	c0-0.1,0-0.1,0.1-0.1c0,0,0.1,0,0.1,0.1C169.6,150.4,169.3,151.6,168,151.6z M172.4,151.6c-1.1,0-2.2-1-2.2-2.3
	c0-1.2,0.9-2.3,2.1-2.3c1.2,0,1.8,1,1.8,2c0,0.2,0,0.2-0.2,0.2H171c0,0.4,0,1,0.3,1.5c0.2,0.4,0.6,0.7,1.1,0.7c0.1,0,1,0,1.3-1
	c0-0.1,0-0.1,0.1-0.1c0,0,0.1,0,0.1,0.1C174.1,150.4,173.6,151.6,172.4,151.6z M172.3,147.2c-0.3,0-1.2,0.2-1.2,1.7h2.4
	C173.4,148.5,173.3,147.2,172.3,147.2z M176.3,151.6c-0.2,0-0.7,0-1.1-0.4c-0.2,0.2-0.2,0.2-0.2,0.2c-0.2,0.2-0.2,0.2-0.2,0.2
	c-0.1,0-0.1-0.1-0.1-0.2V150c0-0.2,0-0.2,0.1-0.2c0.1,0,0.1,0,0.1,0.2c0.2,0.8,0.5,1.4,1.4,1.4c0.8,0,1.1-0.4,1.1-0.9
	c0-0.7-0.8-0.9-1-0.9c-0.7-0.1-1-0.2-1.3-0.5c-0.3-0.2-0.4-0.5-0.4-0.8c0-0.6,0.4-1.2,1.6-1.2c0.1,0,0.6,0,0.9,0.3
	c0,0,0.1-0.1,0.2-0.2c0.1-0.1,0.1-0.1,0.2-0.1c0.1,0,0.1,0.1,0.1,0.2v1c0,0.2,0,0.2-0.1,0.2c0,0-0.1,0-0.1-0.1
	c0-0.3-0.1-1.2-1.2-1.2c-0.9,0-1.1,0.4-1.1,0.8c0,0.6,0.7,0.7,1.2,0.8c0.4,0.1,0.8,0.2,1.1,0.5c0.1,0.1,0.4,0.4,0.4,0.9
	C177.9,150.9,177.5,151.6,176.3,151.6z M184.6,151.6c-0.7,0-1.2-0.5-1.3-0.7l-0.4,0.6h-0.2v-5.9c0-0.5-0.1-0.6-0.8-0.6v-0.3l1.4-0.1
	v3.2c0.2-0.2,0.6-0.6,1.4-0.6c1.1,0,2.1,1,2.1,2.3C186.8,150.6,185.8,151.6,184.6,151.6z M185.7,147.9c-0.2-0.4-0.6-0.6-1-0.6
	c-0.2,0-0.8,0.1-1.2,0.6c-0.1,0.2-0.1,0.2-0.1,0.4v2.1c0,0.2,0,0.2,0.1,0.4c0.2,0.4,0.6,0.6,1,0.6c0.5,0,0.9-0.3,1.1-0.6
	c0.3-0.4,0.3-1,0.3-1.4C186,148.9,185.9,148.3,185.7,147.9z M189.9,151.6c-1.1,0-2.2-1-2.2-2.3c0-1.2,0.9-2.3,2.1-2.3
	c1.2,0,1.8,1,1.8,2c0,0.2,0,0.2-0.2,0.2h-2.8c0,0.4,0,1,0.3,1.5c0.2,0.4,0.6,0.7,1.1,0.7c0.1,0,1,0,1.3-1c0-0.1,0-0.1,0.1-0.1
	c0,0,0.1,0,0.1,0.1C191.6,150.4,191.1,151.6,189.9,151.6z M189.8,147.2c-0.3,0-1.2,0.2-1.2,1.7h2.4
	C190.9,148.5,190.8,147.2,189.8,147.2z M194.2,151.6c-0.4,0-1.3-0.1-1.3-1.3v-2.8H192v-0.2c1,0,1.3-1.1,1.3-1.9h0.2v1.8h1.4v0.3
	h-1.4v2.8c0,0.2,0,1.1,0.7,1.1c0.4,0,0.7-0.4,0.7-1.1v-0.5h0.2v0.6C195.2,150.8,194.9,151.6,194.2,151.6z M201.6,148.1l-1.2,3.3
	c0,0.1-0.1,0.2-0.2,0.2s-0.2-0.1-0.2-0.2l-1-2.8l-1,2.8c0,0.1-0.1,0.2-0.2,0.2c-0.1,0-0.2-0.1-0.2-0.2l-1.3-3.5
	c-0.1-0.3-0.2-0.3-0.7-0.3v-0.3l0.9,0l1.1,0v0.3c-0.2,0-0.6,0-0.6,0.3c0,0,0,0.1,0,0.2l0.9,2.7l0.9-2.4c-0.1-0.2-0.2-0.5-0.2-0.5
	c-0.1-0.1-0.3-0.1-0.6-0.1v-0.3c0.3,0,0.6,0,0.9,0l1,0v0.3c-0.2,0-0.6,0-0.6,0.3c0,0,0,0.1,0,0.2l1,2.8l0.9-2.6c0-0.1,0-0.1,0-0.2
	c0-0.3-0.2-0.5-0.6-0.5v-0.3l0.9,0c0.2,0,0.5,0,0.7,0v0.3C202.1,147.5,201.8,147.6,201.6,148.1z M204.8,151.6c-1.1,0-2.2-1-2.2-2.3
	c0-1.2,0.9-2.3,2.1-2.3c1.2,0,1.8,1,1.8,2c0,0.2,0,0.2-0.2,0.2h-2.8c0,0.4,0,1,0.3,1.5c0.2,0.4,0.6,0.7,1.1,0.7c0.1,0,1,0,1.3-1
	c0-0.1,0-0.1,0.1-0.1c0,0,0.1,0,0.1,0.1C206.5,150.4,206.1,151.6,204.8,151.6z M204.7,147.2c-0.3,0-1.2,0.2-1.2,1.7h2.4
	C205.8,148.5,205.7,147.2,204.7,147.2z M209.3,151.6c-1.1,0-2.2-1-2.2-2.3c0-1.2,0.9-2.3,2.1-2.3c1.2,0,1.8,1,1.8,2
	c0,0.2,0,0.2-0.2,0.2h-2.8c0,0.4,0,1,0.3,1.5c0.2,0.4,0.6,0.7,1.1,0.7c0.1,0,1,0,1.3-1c0-0.1,0-0.1,0.1-0.1c0,0,0.1,0,0.1,0.1
	C210.9,150.4,210.5,151.6,209.3,151.6z M209.1,147.2c-0.3,0-1.2,0.2-1.2,1.7h2.4C210.3,148.5,210.2,147.2,209.1,147.2z M215.4,151.4
	l-1.1,0v-0.3c0.7,0,0.8,0,0.8-0.4v-2.3c0-0.6-0.1-1.1-0.7-1.1c-0.6,0-1.3,0.6-1.3,1.6v1.8c0,0.4,0.1,0.4,0.8,0.4v0.3l-1.1,0l-1.1,0
	v-0.3c0.7,0,0.8,0,0.8-0.4V148c0-0.5-0.1-0.6-0.8-0.6v-0.3l1.4-0.1v1c0.3-0.6,0.7-1,1.5-1c0.6,0,0.9,0.2,1,0.4
	c0.3,0.4,0.3,0.7,0.3,1.5v1.9c0,0.3,0.3,0.3,0.8,0.3v0.3L215.4,151.4z M222,151.6c-0.2,0-0.7,0-1.1-0.4c-0.2,0.2-0.2,0.2-0.2,0.2
	c-0.2,0.2-0.2,0.2-0.2,0.2c-0.1,0-0.1-0.1-0.1-0.2V150c0-0.2,0-0.2,0.1-0.2c0.1,0,0.1,0,0.1,0.2c0.2,0.8,0.5,1.4,1.4,1.4
	c0.8,0,1.1-0.4,1.1-0.9c0-0.7-0.8-0.9-1-0.9c-0.7-0.1-1-0.2-1.3-0.5c-0.3-0.2-0.4-0.5-0.4-0.8c0-0.6,0.4-1.2,1.6-1.2
	c0.1,0,0.6,0,0.9,0.3c0,0,0.1-0.1,0.2-0.2c0.1-0.1,0.1-0.1,0.2-0.1c0.1,0,0.1,0.1,0.1,0.2v1c0,0.2,0,0.2-0.1,0.2c0,0-0.1,0-0.1-0.1
	c0-0.3-0.1-1.2-1.2-1.2c-0.9,0-1.1,0.4-1.1,0.8c0,0.6,0.7,0.7,1.2,0.8c0.4,0.1,0.8,0.2,1.1,0.5c0.1,0.1,0.4,0.4,0.4,0.9
	C223.6,150.9,223.2,151.6,222,151.6z M226.3,151.6c-0.4,0-1.3-0.1-1.3-1.3v-2.8h-0.8v-0.2c1,0,1.3-1.1,1.3-1.9h0.2v1.8h1.4v0.3h-1.4
	v2.8c0,0.2,0,1.1,0.7,1.1c0.4,0,0.7-0.4,0.7-1.1v-0.5h0.2v0.6C227.3,150.8,227,151.6,226.3,151.6z M231.9,151.5
	c-0.5,0-0.7-0.4-0.8-0.8c-0.2,0.5-0.6,0.9-1.3,0.9c-0.6,0-1.6-0.2-1.6-1.1c0-0.4,0.2-1,1-1.3c0.6-0.3,1.3-0.3,1.8-0.4v-0.4
	c0-0.9-0.6-1.3-1.1-1.3c-0.3,0-0.8,0.1-1.1,0.5c0.5,0,0.5,0.3,0.5,0.5c0,0.3-0.2,0.5-0.5,0.5c-0.3,0-0.5-0.2-0.5-0.5
	c0-0.7,0.7-1.1,1.5-1.1c0.5,0,1,0.2,1.4,0.5c0.4,0.4,0.4,0.8,0.4,1.2v2c0,0,0,0.5,0.4,0.5c0.1,0,0.4-0.1,0.4-0.6V150h0.2v0.6
	C232.7,151.4,232.1,151.5,231.9,151.5z M231,149.1c-1.6,0.1-2.1,0.9-2.1,1.4c0,0.5,0.4,0.8,0.9,0.8c0.4,0,1.2-0.3,1.2-1.3V149.1z
	 M237.1,151.4l-1.1,0v-0.3c0.7,0,0.8,0,0.8-0.4v-2.3c0-0.6-0.1-1.1-0.7-1.1c-0.6,0-1.3,0.6-1.3,1.6v1.8c0,0.4,0.1,0.4,0.8,0.4v0.3
	l-1.1,0l-1.1,0v-0.3c0.7,0,0.8,0,0.8-0.4V148c0-0.5-0.1-0.6-0.8-0.6v-0.3l1.4-0.1v1c0.3-0.6,0.7-1,1.5-1c0.6,0,0.9,0.2,1,0.4
	c0.3,0.4,0.3,0.7,0.3,1.5v1.9c0,0.3,0.3,0.3,0.8,0.3v0.3L237.1,151.4z M242.2,151.6v-0.7c-0.2,0.3-0.7,0.7-1.3,0.7
	c-1.1,0-2.1-1-2.1-2.3c0-1.3,1-2.3,2.2-2.3c0.5,0,1,0.3,1.3,0.6v-2.2c0-0.5-0.1-0.6-0.8-0.6v-0.3l1.4-0.1v6c0,0.5,0.1,0.6,0.8,0.6
	v0.3L242.2,151.6z M242.2,148.2c0-0.2,0-0.2-0.1-0.4c-0.3-0.4-0.7-0.6-1.1-0.6c-0.5,0-0.9,0.3-1.1,0.6c-0.3,0.4-0.3,1-0.3,1.4
	c0,0.4,0,1,0.3,1.4c0.2,0.4,0.6,0.6,1,0.6c0.4,0,0.9-0.2,1.2-0.7c0.1-0.2,0.1-0.2,0.1-0.4V148.2z M247.9,151.5
	c-0.5,0-0.7-0.4-0.8-0.8c-0.2,0.5-0.6,0.9-1.3,0.9c-0.6,0-1.6-0.2-1.6-1.1c0-0.4,0.2-1,1-1.3c0.6-0.3,1.3-0.3,1.8-0.4v-0.4
	c0-0.9-0.6-1.3-1.1-1.3c-0.3,0-0.8,0.1-1.1,0.5c0.5,0,0.5,0.3,0.5,0.5c0,0.3-0.2,0.5-0.5,0.5c-0.3,0-0.5-0.2-0.5-0.5
	c0-0.7,0.7-1.1,1.5-1.1c0.5,0,1,0.2,1.4,0.5c0.4,0.4,0.4,0.8,0.4,1.2v2c0,0,0,0.5,0.4,0.5c0.1,0,0.4-0.1,0.4-0.6V150h0.2v0.6
	C248.7,151.4,248.1,151.5,247.9,151.5z M247.1,149.1c-1.6,0.1-2.1,0.9-2.1,1.4c0,0.5,0.4,0.8,0.9,0.8c0.4,0,1.2-0.3,1.2-1.3V149.1z
	 M252.1,148.1c-0.2,0-0.4-0.1-0.4-0.4c0-0.3,0.2-0.4,0.2-0.4c0,0,0,0-0.1,0c-0.8,0-1.2,0.9-1.2,1.9v1.5c0,0.4,0,0.5,0.8,0.5h0.2v0.3
	c-0.4,0-0.9,0-1.3,0l-1.1,0v-0.3c0.7,0,0.8,0,0.8-0.4V148c0-0.5-0.1-0.6-0.8-0.6v-0.3l1.4-0.1v1.1c0.1-0.4,0.5-1.1,1.2-1.1
	c0.4,0,0.7,0.3,0.7,0.6S252.3,148.1,252.1,148.1z M256.6,151.6v-0.7c-0.2,0.3-0.7,0.7-1.3,0.7c-1.1,0-2.1-1-2.1-2.3
	c0-1.3,1-2.3,2.2-2.3c0.5,0,1,0.3,1.3,0.6v-2.2c0-0.5-0.1-0.6-0.8-0.6v-0.3l1.4-0.1v6c0,0.5,0.1,0.6,0.8,0.6v0.3L256.6,151.6z
	 M256.6,148.2c0-0.2,0-0.2-0.1-0.4c-0.3-0.4-0.7-0.6-1.1-0.6c-0.5,0-0.9,0.3-1.1,0.6c-0.3,0.4-0.3,1-0.3,1.4c0,0.4,0,1,0.3,1.4
	c0.2,0.4,0.6,0.6,1,0.6c0.4,0,0.9-0.2,1.2-0.7c0.1-0.2,0.1-0.2,0.1-0.4V148.2z M267.2,151.4H262v-0.3h0.2c0.8,0,0.8-0.1,0.8-0.5
	v-5.3c0-0.4,0-0.5-0.8-0.5H262v-0.3c0.3,0,1.1,0,1.5,0c0.4,0,1.3,0,1.7,0v0.3h-0.3c-0.9,0-0.9,0.1-0.9,0.5v5.3c0,0.3,0,0.4,0.5,0.4
	h0.8c1.8,0,1.9-1.2,2-2.3h0.2L267.2,151.4z"/>
<text transform="matrix(1 0 0 1 264.3037 149.6699)" class="st6 st7">A</text>
<text transform="matrix(1 0 0 1 268.6895 151.4434)" class="st1 st2">T</text>
<text transform="matrix(1 0 0 1 274.2207 153.5898)" class="st1 st2">E</text>
<text transform="matrix(1 0 0 1 279.7598 151.4434)"><tspan x="0" y="0" class="st1 st2 st4">X</tspan><tspan x="8.3" y="0" class="st1 st2">classes</tspan></text>
<rect class="st10" width="391" height="160"/>
</svg>
