<?xml version="1.0" encoding="utf-8"?>
<!-- Generator: Adobe Illustrator 22.0.1, SVG Export Plug-In . SVG Version: 6.00 Build 0)  -->
<svg version="1.1" id="图层_1" xmlns="http://www.w3.org/2000/svg" xmlns:xlink="http://www.w3.org/1999/xlink" x="0px" y="0px"
	 viewBox="0 0 223.5 269.5" style="enable-background:new 0 0 223.5 269.5;" xml:space="preserve">
<style type="text/css">
	.st0{fill:none;stroke:#000000;stroke-width:0.797;stroke-miterlimit:10;}
	.st1{font-family:'LMRoman10-Regular-Identity-H';}
	.st2{font-size:9.9626px;}
	.st3{letter-spacing:11;}
	.st4{letter-spacing:3;}
	.st5{fill:none;stroke:#000000;stroke-width:0.4982;stroke-miterlimit:10;}
	.st6{letter-spacing:18;}
	.st7{letter-spacing:26;}
	.st8{letter-spacing:27;}
	.st9{letter-spacing:24;}
	.st10{fill:none;}
</style>
<line class="st0" x1="9.7" y1="17.7" x2="212.9" y2="17.7"/>
<text transform="matrix(1 0 0 1 15.6899 34.2803)"><tspan x="0" y="0" class="st1 st2">Y</tspan><tspan x="4.2" y="0" class="st1 st2">ea</tspan><tspan x="14.1" y="0" class="st1 st2 st3">r</tspan><tspan x="31.1" y="0" class="st1 st2">NM</tspan><tspan x="41" y="0" class="st1 st2 st3">E </tspan><tspan x="74.9" y="0" class="st1 st2">Ne</tspan><tspan x="84.8" y="0" class="st1 st2 st4">w</tspan><tspan x="93.1" y="0" class="st1 st2">B</tspan><tspan x="98.1" y="0" class="st1 st2">L</tspan><tspan x="103.1" y="0" class="st1 st2 st3">A</tspan><tspan x="120" y="0" class="st1 st2">T</tspan><tspan x="124.2" y="0" class="st1 st2">ota</tspan><tspan x="139.1" y="0" class="st1 st2 st3">l</tspan><tspan x="156.1" y="0" class="st1 st2">Rate/%</tspan></text>
<line class="st5" x1="9.7" y1="42" x2="212.9" y2="42"/>
<text transform="matrix(1 0 0 1 15.7051 58.415)"><tspan x="0" y="0" class="st1 st2">200</tspan><tspan x="14.9" y="0" class="st1 st2 st6">8</tspan><tspan x="38.6" y="0" class="st1 st2">21</tspan></text>
<text transform="matrix(1 0 0 1 102.0361 58.415)" class="st1 st2">3</text>
<text transform="matrix(1 0 0 1 144.5669 58.415)"><tspan x="0" y="0" class="st1 st2">9</tspan><tspan x="5" y="0" class="st1 st2 st7">5</tspan><tspan x="36.5" y="0" class="st1 st2">25.3</tspan></text>
<text transform="matrix(1 0 0 1 15.7051 77.543)"><tspan x="0" y="0" class="st1 st2">200</tspan><tspan x="14.9" y="0" class="st1 st2 st6">9</tspan><tspan x="38.6" y="0" class="st1 st2">20</tspan></text>
<text transform="matrix(1 0 0 1 102.0361 77.543)" class="st1 st2">6</text>
<text transform="matrix(1 0 0 1 144.5669 77.543)"><tspan x="0" y="0" class="st1 st2">9</tspan><tspan x="5" y="0" class="st1 st2 st7">8</tspan><tspan x="36.5" y="0" class="st1 st2">26.5</tspan></text>
<text transform="matrix(1 0 0 1 15.7051 96.6709)"><tspan x="0" y="0" class="st1 st2">201</tspan><tspan x="14.9" y="0" class="st1 st2 st6">0</tspan><tspan x="38.6" y="0" class="st1 st2">15</tspan></text>
<text transform="matrix(1 0 0 1 102.0361 96.6709)" class="st1 st2">6</text>
<text transform="matrix(1 0 0 1 144.5669 96.6709)"><tspan x="0" y="0" class="st1 st2">9</tspan><tspan x="5" y="0" class="st1 st2 st7">3</tspan><tspan x="36.5" y="0" class="st1 st2">22.6</tspan></text>
<text transform="matrix(1 0 0 1 15.7051 115.7998)"><tspan x="0" y="0" class="st1 st2">201</tspan><tspan x="14.9" y="0" class="st1 st2 st6">1</tspan><tspan x="38.6" y="0" class="st1 st2">24</tspan></text>
<text transform="matrix(1 0 0 1 102.0361 115.7998)" class="st1 st2">6</text>
<text transform="matrix(1 0 0 1 142.0762 115.7998)"><tspan x="0" y="0" class="st1 st2">10</tspan><tspan x="10" y="0" class="st1 st2 st8">0</tspan><tspan x="42.9" y="0" class="st1 st2">30</tspan></text>
<text transform="matrix(1 0 0 1 15.7051 134.9277)"><tspan x="0" y="0" class="st1 st2">201</tspan><tspan x="14.9" y="0" class="st1 st2 st6">2</tspan><tspan x="38.6" y="0" class="st1 st2">33</tspan></text>
<text transform="matrix(1 0 0 1 102.0361 134.9277)" class="st1 st2">6</text>
<text transform="matrix(1 0 0 1 142.0762 134.9277)"><tspan x="0" y="0" class="st1 st2">10</tspan><tspan x="10" y="0" class="st1 st2 st9">1</tspan><tspan x="39" y="0" class="st1 st2">38.6</tspan></text>
<text transform="matrix(1 0 0 1 15.7051 154.0557)"><tspan x="0" y="0" class="st1 st2">201</tspan><tspan x="14.9" y="0" class="st1 st2 st6">3</tspan><tspan x="38.6" y="0" class="st1 st2">25</tspan></text>
<text transform="matrix(1 0 0 1 102.0361 154.0557)" class="st1 st2">4</text>
<text transform="matrix(1 0 0 1 142.0762 154.0557)"><tspan x="0" y="0" class="st1 st2">10</tspan><tspan x="10" y="0" class="st1 st2 st9">2</tspan><tspan x="39" y="0" class="st1 st2">28.4</tspan></text>
<text transform="matrix(1 0 0 1 15.7051 173.1846)"><tspan x="0" y="0" class="st1 st2">201</tspan><tspan x="14.9" y="0" class="st1 st2 st6">4</tspan><tspan x="38.6" y="0" class="st1 st2">30</tspan></text>
<text transform="matrix(1 0 0 1 99.5459 173.1846)" class="st1 st2">11</text>
<text transform="matrix(1 0 0 1 142.0762 173.1846)"><tspan x="0" y="0" class="st1 st2">11</tspan><tspan x="10" y="0" class="st1 st2 st9">9</tspan><tspan x="39" y="0" class="st1 st2">34.4</tspan></text>
<text transform="matrix(1 0 0 1 15.7051 192.3135)"><tspan x="0" y="0" class="st1 st2">201</tspan><tspan x="14.9" y="0" class="st1 st2 st6">5</tspan><tspan x="38.6" y="0" class="st1 st2">33</tspan></text>
<text transform="matrix(1 0 0 1 99.5459 192.3135)" class="st1 st2">12</text>
<text transform="matrix(1 0 0 1 142.0762 192.3135)"><tspan x="0" y="0" class="st1 st2">12</tspan><tspan x="10" y="0" class="st1 st2 st9">7</tspan><tspan x="39" y="0" class="st1 st2">35.4</tspan></text>
<text transform="matrix(1 0 0 1 15.7051 211.4414)"><tspan x="0" y="0" class="st1 st2">201</tspan><tspan x="14.9" y="0" class="st1 st2 st6">6</tspan><tspan x="38.6" y="0" class="st1 st2">15</tspan></text>
<text transform="matrix(1 0 0 1 102.0361 211.4414)" class="st1 st2">7</text>
<text transform="matrix(1 0 0 1 142.0762 211.4414)"><tspan x="0" y="0" class="st1 st2">10</tspan><tspan x="10" y="0" class="st1 st2 st9">2</tspan><tspan x="39" y="0" class="st1 st2">21.6</tspan></text>
<text transform="matrix(1 0 0 1 15.7051 230.5703)"><tspan x="0" y="0" class="st1 st2">201</tspan><tspan x="14.9" y="0" class="st1 st2 st6">7</tspan><tspan x="38.6" y="0" class="st1 st2">34</tspan></text>
<text transform="matrix(1 0 0 1 99.5459 230.5703)" class="st1 st2">12</text>
<text transform="matrix(1 0 0 1 142.0762 230.5703)"><tspan x="0" y="0" class="st1 st2">15</tspan><tspan x="10" y="0" class="st1 st2 st9">0</tspan><tspan x="39" y="0" class="st1 st2">30.7</tspan></text>
<text transform="matrix(1 0 0 1 15.7051 249.6982)"><tspan x="0" y="0" class="st1 st2">201</tspan><tspan x="14.9" y="0" class="st1 st2 st6">8</tspan><tspan x="38.6" y="0" class="st1 st2">42</tspan></text>
<text transform="matrix(1 0 0 1 99.5459 249.6982)" class="st1 st2">17</text>
<text transform="matrix(1 0 0 1 142.0762 249.6982)"><tspan x="0" y="0" class="st1 st2">15</tspan><tspan x="10" y="0" class="st1 st2 st9">1</tspan><tspan x="39" y="0" class="st1 st2">39.1</tspan></text>
<line class="st0" x1="9.7" y1="257.6" x2="212.9" y2="257.6"/>
<rect class="st10" width="223.5" height="269.5"/>
</svg>
